<svg id="Layer_1" data-name="Layer 1" xmlns="http://www.w3.org/2000/svg" viewBox="0 0 1456.43 881.14"><defs><style>.cls-1,.cls-3{fill:#00bac6;}.cls-1{fill-rule:evenodd;}.cls-2{fill:#1d2536;}</style></defs><path class="cls-1" d="M2037.21,723.88c131.47,0,240.3,96.82,259.12,223,1,0,1.93,0,2.9,0a150.51,150.51,0,0,1,0,301h-262c-144.69,0-262-117.31-262-262S1892.52,723.88,2037.21,723.88Z" transform="translate(-1049.66 -723.88)"/><path class="cls-2" d="M2218.3,1297.27v119.46a42.4,42.4,0,0,1-84.8,0V1297.27h-56.27v119.46a98.67,98.67,0,0,0,197.34,0V1297.27Z" transform="translate(-1049.66 -723.88)"/><path class="cls-2" d="M2449.83,1231.22v79.68A109.07,109.07,0,1,0,2506,1409l.07-2V1231.22ZM2397,1459.13a52.8,52.8,0,1,1,52.8-52.8A52.8,52.8,0,0,1,2397,1459.13Z" transform="translate(-1049.66 -723.88)"/><path class="cls-2" d="M1954.76,1297.27a109.06,109.06,0,1,0,109.06,109.06A109.06,109.06,0,0,0,1954.76,1297.27Zm0,161.86a52.8,52.8,0,1,1,52.8-52.8A52.8,52.8,0,0,1,1954.76,1459.13Z" transform="translate(-1049.66 -723.88)"/><path class="cls-2" d="M1775.2,1515.36V1231.27h57.08v284.09Z" transform="translate(-1049.66 -723.88)"/><path class="cls-2" d="M1714.49,1432.15a52.77,52.77,0,1,1,.39-51.06l46.94-31.23a109.08,109.08,0,1,0-.41,113.52Z" transform="translate(-1049.66 -723.88)"/><path class="cls-2" d="M1412.79,1392.5l-20.14,87.73a45.82,45.82,0,0,1-89,.69l-46.14-181h57.08l35.78,150.43,28.66-116.45a36.36,36.36,0,0,1,70.63.14L1478,1451.16l36.17-151.24h55L1522.75,1481a46.39,46.39,0,0,1-89.83-.77Z" transform="translate(-1049.66 -723.88)"/><path class="cls-2" d="M1267.78,1405.94c-6.23-144.38-212.42-144-218.11.41-.84,82.14,90.42,135.66,161.52,95.62-5.19,47-65.58,63.77-94.18,26.38l-44.15,35c62,79.33,190.93,38.41,194.83-63.26Zm-109,53.2a52.8,52.8,0,0,1-52.8-52.8c2.78-70,102.83-70,105.6,0A52.8,52.8,0,0,1,1158.73,1459.14Z" transform="translate(-1049.66 -723.88)"/><circle class="cls-3" cx="505" cy="769.48" r="21.86"/></svg>